<svg width="248" height="291" viewBox="0 0 248 291" fill="none" xmlns="http://www.w3.org/2000/svg">
<path d="M45.8597 174.963C96.0928 167.72 135.503 230.346 97.8564 259.759C81.6197 272.444 58.0468 271.236 39.6178 260.545C-2.94401 235.851 2.72711 181.175 45.8597 174.963Z" fill="#FAC663" fill-opacity="0.15"/>
<path d="M87.1172 154.297C45.4753 186.831 -22.1513 125.973 8.34229 83.4569C22.2365 64.0882 52.6428 60.7595 77.3421 78.8036C105.034 99.0223 110.527 136.007 87.1172 154.297Z" fill="#FAC663" fill-opacity="0.15"/>
<path d="M196.01 271.598C200.546 265.483 210.006 256.436 220.634 247.894C231.86 238.856 244.384 230.379 253.738 226.495C279.03 216.041 296.378 179.973 267.49 155.783C240.78 133.423 221.36 151.058 196.61 129.428C171.611 107.556 142.828 110.062 125.031 125.529C108.561 139.846 101.507 165.268 115.617 192.716C130.66 221.959 108.881 236.488 124.117 267.798C140.595 301.722 179.789 293.493 196.01 271.598Z" fill="#FAC663" fill-opacity="0.15"/>
<path d="M160.408 97.0397C148.629 106.242 133.177 107.316 119.388 101.254C78.3924 83.2262 72.2178 18.7523 110.751 3.48811C159.474 -15.8352 202.027 64.5234 160.408 97.0397Z" fill="#FAC663" fill-opacity="0.15"/>
<path d="M216.404 129.915C177.514 107.699 178.037 43.0402 218.113 31.9451C266.386 18.5786 301.254 96.3534 261.164 127.675C248.299 137.727 231.187 138.361 216.404 129.915Z" fill="#FAC663" fill-opacity="0.15"/>
</svg>
